<?xml version="1.0" standalone="no"?><!DOCTYPE svg PUBLIC "-//W3C//DTD SVG 1.1//EN" "http://www.w3.org/Graphics/SVG/1.1/DTD/svg11.dtd">
<svg t="1535621870975" class="icon" style="" viewBox="0 0 1024 1024" version="1.1" 
    xmlns="http://www.w3.org/2000/svg" p-id="7210" 
    xmlns:xlink="http://www.w3.org/1999/xlink" width="40" height="40">
    <defs>
        <style type="text/css"></style>
    </defs>
    <path d="M907 270.9l-44.4 44.4c53.8 48.6 87.5 118.9 87.5 197.1 0 125.4-86.8 230.3-203.4 258.5v64.2c151.5-29.3 266-162.5 266-322.7 0.1-95.5-40.7-181.5-105.7-241.5z" fill="#ffffff" p-id="7211"></path>
    <path d="M856.3 512.4c0-52.3-23.3-99.1-60.1-130.6l-44.5 44.5c25.5 20.1 42 51.1 42 86.1 0 49.6-33 91.5-78.2 105v64.2c80-14.6 140.8-84.7 140.8-169.2zM574.4 854.2c0 57.3-26.2 79.3-68.5 55.8-36.9-20.5-86.5-55.3-141.4-96.3L311.3 867c63.7 46 126.1 88.5 183.2 122.5 86.6 51.6 142.7 16.1 142.7-92.2V540.9l-62.8 62.8v250.5zM230.3 230.6h-62.6c-86.4 0-156.5 70.1-156.5 156.6v250.5c0 52 25.3 98 64.3 126.5l45.2-45.2c-28-16.3-46.9-46.5-46.9-81.2V387.2c0-51.9 42-94 93.9-94h62.6v316.1l62.6-62.6V266.8c81.9-64.1 158.6-122.2 211.2-151.5 43.3-24.1 70.2-3.9 70.2 51.5v98.1l62.8-62.8v-81.7c0-89-56.9-140.9-142.2-87.8-76 47.3-136.8 96.5-223.9 163.1l-40.7 34.9zM63.043 909.523L901.002 71.09l44.277 44.252-837.96 838.433z" fill="#ffffff" p-id="7212"></path>
</svg>