<?xml version="1.0" standalone="no"?><!DOCTYPE svg PUBLIC "-//W3C//DTD SVG 1.1//EN" "http://www.w3.org/Graphics/SVG/1.1/DTD/svg11.dtd"><svg t="1535276143470" class="icon" style="" viewBox="0 0 1024 1024" version="1.1" xmlns="http://www.w3.org/2000/svg" p-id="2089" xmlns:xlink="http://www.w3.org/1999/xlink" width="40" height="40"><defs><style type="text/css"></style></defs><path d="M512 29.576c266.014 0 482.423 216.435 482.423 482.423 0 266.014-216.41 482.424-482.423 482.423-265.987 0-482.424-216.41-482.423-482.423 0-265.987 216.435-482.423 482.423-482.423zM512 926.72c228.666 0 414.72-186.031 414.72-414.72s-186.031-414.773-414.72-414.773-414.748 186.111-414.748 414.773 186.058 414.72 414.748 414.72z" p-id="2090" fill="#ffffff"></path><path d="M328.195 311.301v371.684l294.81-192.225-294.81-179.46z" p-id="2091" fill="#ffffff"></path><path d="M622.979 311.3v346.026h51.265v-346.026h-51.265z" p-id="2092" fill="#ffffff"></path></svg>