<?xml version="1.0" standalone="no"?><!DOCTYPE svg PUBLIC "-//W3C//DTD SVG 1.1//EN" "http://www.w3.org/Graphics/SVG/1.1/DTD/svg11.dtd"><svg t="1535276286774" class="icon" style="" viewBox="0 0 1024 1024" version="1.1" xmlns="http://www.w3.org/2000/svg" p-id="3048" xmlns:xlink="http://www.w3.org/1999/xlink" width="40" height="40"><defs><style type="text/css"></style></defs><path d="M500.8 19.2c-275.2 0-499.2 224-499.2 499.2s224 499.2 499.2 499.2 499.2-224 499.2-499.2-224-499.2-499.2-499.2z m0 932.8c-240 0-435.2-195.2-435.2-435.2s195.2-435.2 435.2-435.2 435.2 195.2 435.2 435.2c0 241.6-195.2 435.2-435.2 435.2z" p-id="3049" fill="#666666"></path><path d="M596.8 326.4c-17.6 0-32 14.4-32 32v320c0 17.6 14.4 32 32 32s32-14.4 32-32v-320c0-17.6-14.4-32-32-32zM404.8 326.4c-17.6 0-32 14.4-32 32v320c0 17.6 14.4 32 32 32s32-14.4 32-32v-320c0-17.6-14.4-32-32-32z" p-id="3050" fill="#666666"></path></svg>