<?xml version="1.0" standalone="no"?><!DOCTYPE svg PUBLIC "-//W3C//DTD SVG 1.1//EN" "http://www.w3.org/Graphics/SVG/1.1/DTD/svg11.dtd"><svg t="1535276273117" class="icon" style="" viewBox="0 0 1024 1024" version="1.1" xmlns="http://www.w3.org/2000/svg" p-id="2827" xmlns:xlink="http://www.w3.org/1999/xlink" width="32" height="32"><defs><style type="text/css"></style></defs><path d="M512 0C229.2224 0 0 229.2224 0 512s229.2224 512 512 512 512-229.2224 512-512S794.7776 0 512 0z m0 950.8352c-242.0224 0-438.8352-196.8128-438.8352-438.8352 0-241.9712 196.8128-438.8352 438.8352-438.8352S950.8352 270.0288 950.8352 512c0 242.0224-196.8128 438.8352-438.8352 438.8352z m-93.5936-203.4688a18.2272 18.2272 0 0 1-18.2784-18.2784V311.0912a18.3296 18.3296 0 0 1 28.7232-15.0016l292.5568 203.52a18.2784 18.2784 0 0 1 0.4096 29.7472l-292.5568 214.4256a18.2784 18.2784 0 0 1-10.8544 3.584z" p-id="2828" fill="#666666"></path></svg>