<?xml version="1.0" standalone="no"?><!DOCTYPE svg PUBLIC "-//W3C//DTD SVG 1.1//EN" "http://www.w3.org/Graphics/SVG/1.1/DTD/svg11.dtd"><svg t="1535766963557" class="icon" style="" viewBox="0 0 1024 1024" version="1.1" xmlns="http://www.w3.org/2000/svg" p-id="3496" xmlns:xlink="http://www.w3.org/1999/xlink" width="32" height="32"><defs><style type="text/css"></style></defs><path d="M452.278827 537.593911" fill="#13227a" p-id="3497"></path><path d="M295.121508 718.705805 268.176832 697.743378 398.241097 530.529005 481.8227 597.381599 588.783781 419.119613 756.980527 699.44309 727.72011 717.006094 588.783781 485.439064 490.987431 648.437415 403.939889 578.785056Z" fill="#13227a" p-id="3498"></path><path d="M392.558677 486.405065c-42.341341 0-76.783781-34.44244-76.783781-76.783781s34.44244-76.783781 76.783781-76.783781 76.783781 34.44244 76.783781 76.783781S434.900018 486.405065 392.558677 486.405065zM392.558677 366.964766c-23.51967 0-42.657542 19.129686-42.657542 42.657542 0 23.527856 19.137873 42.657542 42.657542 42.657542 23.51967 0 42.657542-19.129686 42.657542-42.657542C435.216219 386.093429 416.078347 366.964766 392.558677 366.964766z" fill="#13227a" p-id="3499"></path><path d="M76.893274 512c0-239.915162 195.191564-435.106726 435.106726-435.106726s435.106726 195.191564 435.106726 435.106726S751.915162 947.106726 512 947.106726 76.893274 751.915162 76.893274 512zM912.980487 512c0-221.1027-179.877787-400.980487-400.980487-400.980487S111.019513 290.8973 111.019513 512s179.877787 400.980487 400.980487 400.980487S912.980487 733.1027 912.980487 512z" fill="#13227a" p-id="3500"></path></svg>