<?xml version="1.0" standalone="no"?><!DOCTYPE svg PUBLIC "-//W3C//DTD SVG 1.1//EN" "http://www.w3.org/Graphics/SVG/1.1/DTD/svg11.dtd">
<svg t="1535765501271" class="icon" style="" viewBox="0 0 1024 1024" version="1.1" 
    xmlns="http://www.w3.org/2000/svg" p-id="2394" 
    xmlns:xlink="http://www.w3.org/1999/xlink" width="32" height="32">
    <defs>
        <style type="text/css"></style>
    </defs>
    <path d="M685.425 155.292l-39.476-9.712-125.353 509.494c-82.656-65.399-205.017-34.174-243.861 45.712-12.667 25.993-6.018 57.956 0.202 75.089 33.174 91.365 153.169 84.05 233.443 13.191 33.023-29.149 43.258-60.232 62.442-138.205l77.851-316.423c47.179 10.099 113.478 86.864 118.414 142.888 3.104 35.54-7.522 79.318-31.753 105.943-6.149 6.73-24.79 29.283-15.447 27.576 17.396-3.178 25.75-9.744 43.582-26.34 16.189-15.069 31.67-39.89 38.125-56.25 68.914-175.03-135.807-231.793-118.17-372.963M512 981.675c-63.399 0-124.91-12.42-182.824-36.916-55.93-23.656-106.158-57.519-149.287-100.648-43.13-43.128-76.992-93.356-100.65-149.287C54.745 636.91 42.325 575.4 42.325 512c0-63.399 12.42-124.91 36.916-182.823 23.657-55.93 57.52-106.158 100.649-149.287 43.13-43.13 93.356-76.992 149.287-100.65C387.09 54.746 448.601 42.326 512 42.326s124.909 12.42 182.823 36.916c55.93 23.657 106.158 57.52 149.287 100.65 43.13 43.127 76.992 93.355 100.648 149.286C969.254 387.09 981.674 448.601 981.674 512c0 63.4-12.42 124.91-36.916 182.824-23.656 55.93-57.519 106.158-100.648 149.287-43.128 43.13-93.355 76.992-149.287 100.648-57.914 24.495-119.424 36.916-182.823 36.916z m0-908.65c-59.268 0-116.755 11.603-170.865 34.49-52.271 22.108-99.217 53.762-139.538 94.081s-71.973 87.268-94.082 139.538C84.628 395.243 73.025 452.73 73.025 512s11.603 116.755 34.49 170.864c22.108 52.272 53.763 99.22 94.082 139.539s87.267 71.973 139.538 94.081c54.11 22.887 111.597 34.49 170.865 34.49 59.268 0 116.755-11.603 170.865-34.49 52.271-22.108 99.218-53.762 139.538-94.081s71.973-87.267 94.081-139.539c22.887-54.109 34.49-111.596 34.49-170.864s-11.603-116.755-34.49-170.865c-22.108-52.271-53.762-99.218-94.081-139.538s-87.267-71.973-139.538-94.081C628.755 84.628 571.268 73.025 512 73.025z" p-id="2395" fill="#f4b350"></path>
</svg>