<?xml version="1.0" standalone="no"?><!DOCTYPE svg PUBLIC "-//W3C//DTD SVG 1.1//EN" "http://www.w3.org/Graphics/SVG/1.1/DTD/svg11.dtd"><svg t="1534731731844" class="icon" style="" viewBox="0 0 1024 1024" version="1.1" xmlns="http://www.w3.org/2000/svg" p-id="2950" xmlns:xlink="http://www.w3.org/1999/xlink" width="32" height="32"><defs><style type="text/css"></style></defs><path d="M512 992C246.4 992 32 777.6 32 512S246.4 32 512 32s480 214.4 480 480-214.4 480-480 480z m0-912C275.2 80 80 275.2 80 512S275.2 944 512 944 944 748.8 944 512 748.8 80 512 80z" fill="#62ddbd" p-id="2951"></path><path d="M390.4 316.8c16 0 28.8 12.8 28.8 28.8v332.8c0 16-12.8 28.8-28.8 28.8s-28.8-12.8-28.8-28.8V348.8c0-19.2 12.8-32 28.8-32zM633.6 316.8c16 0 28.8 12.8 28.8 28.8v332.8c0 16-12.8 28.8-28.8 28.8s-28.8-12.8-28.8-28.8V348.8c-3.2-19.2 12.8-32 28.8-32z" fill="#62ddbd" p-id="2952"></path></svg>