<?xml version="1.0" standalone="no"?><!DOCTYPE svg PUBLIC "-//W3C//DTD SVG 1.1//EN" "http://www.w3.org/Graphics/SVG/1.1/DTD/svg11.dtd"><svg t="1534731672832" class="icon" style="" viewBox="0 0 1024 1024" version="1.1" xmlns="http://www.w3.org/2000/svg" p-id="2216" xmlns:xlink="http://www.w3.org/1999/xlink" width="32" height="32"><defs><style type="text/css"></style></defs><path d="M758.176768 506.343424c-0.017408-0.018432-0.031744-0.037888-0.049152-0.055296-0.90112-0.910336-1.891328-1.673216-2.930688-2.320384L419.904512 236.803072c-2.957312-3.59424-7.427072-5.902336-12.422144-5.92896-8.84224-0.047104-16.22528 6.837248-16.177152 15.680512l0.134144 534.422528c0.047104 8.843264 7.508992 16.052224 16.351232 16.100352 5.33504 0.027648 10.0352-2.566144 12.925952-6.562816l333.686784-258.569216c1.468416-0.7424 2.847744-1.719296 4.072448-2.955264 6.119424-6.19008 6.119424-16.219136 0-22.408192L758.176768 506.343424zM423.71584 747.956224l-0.11776-468.133888 297.911296 237.37856L423.71584 747.956224zM512.84992 4.08064c-281.225216 0-509.211648 227.97824-509.211648 509.211648 0 281.234432 227.986432 509.212672 509.211648 509.212672 281.235456 0 509.220864-227.97824 509.220864-509.212672C1022.070784 232.057856 794.084352 4.08064 512.84992 4.08064zM512.881664 991.27808c-263.373824 0-476.88704-213.506048-476.88704-476.888064 0-263.374848 213.513216-476.888064 476.88704-476.888064S989.769728 251.016192 989.769728 514.390016C989.769728 777.772032 776.255488 991.27808 512.881664 991.27808z" p-id="2217" fill="#62ddbd"></path></svg>