<?xml version="1.0" standalone="no"?><!DOCTYPE svg PUBLIC "-//W3C//DTD SVG 1.1//EN" "http://www.w3.org/Graphics/SVG/1.1/DTD/svg11.dtd"><svg t="1535765263007" class="icon" style="" viewBox="0 0 1024 1024" version="1.1" xmlns="http://www.w3.org/2000/svg" p-id="4139" xmlns:xlink="http://www.w3.org/1999/xlink" width="32" height="32"><defs><style type="text/css"></style></defs><path d="M716.944 324.142h-5.839v-81.527H657.88v81.527h-292.76v-81.527h-53.207v81.527h-5.878c-67.183 0-121.837 54.636-121.837 121.837v348.783c0 67.2 54.655 121.857 121.837 121.857h19.17v7.598c0 19.606 15.9 35.485 35.484 35.485 19.585 0 35.486-15.88 35.486-35.485v-7.598h230.671v7.598c0 19.606 15.88 35.485 35.485 35.485 19.584 0 35.483-15.88 35.483-35.485v-7.598h19.131c67.2 0 121.857-54.657 121.857-121.857V445.978c0-67.201-54.656-121.836-121.857-121.836z m66.104 470.619c0 36.435-29.648 66.082-66.104 66.082H306.033c-36.438 0-66.086-29.647-66.086-66.082V445.978c0-36.437 29.648-66.084 66.086-66.084h410.911c36.456 0 66.104 29.647 66.104 66.084v348.783zM369.487 460.139c-14.7 0-26.604 11.924-26.604 26.624v267.213c0 14.699 11.904 26.624 26.604 26.624 14.72 0 26.624-11.924 26.624-26.624V486.763c0-14.699-11.904-26.624-26.624-26.624z m284.023 0c-14.7 0-26.602 11.924-26.602 26.624v267.213c0 14.699 11.903 26.624 26.602 26.624 14.698 0 26.624-11.924 26.624-26.624V486.763c0-14.699-11.926-26.624-26.624-26.624zM365.12 179.014c0-34.242 27.865-62.088 62.108-62.088h168.564c34.24 0 62.088 27.845 62.088 62.088v28.115h53.226v-28.115c0-63.579-51.737-115.314-115.314-115.314H427.228c-63.6 0-115.316 51.736-115.316 115.314v28.115h53.207v-28.115z" p-id="4140"></path></svg>