<?xml version="1.0" standalone="no"?><!DOCTYPE svg PUBLIC "-//W3C//DTD SVG 1.1//EN" "http://www.w3.org/Graphics/SVG/1.1/DTD/svg11.dtd"><svg t="1535765232865" class="icon" style="" viewBox="0 0 1024 1024" version="1.1" xmlns="http://www.w3.org/2000/svg" p-id="3368" xmlns:xlink="http://www.w3.org/1999/xlink" width="32" height="32"><defs><style type="text/css"></style></defs><path d="M460.719 518.156c0 27.2 22.050 49.249 49.249 49.249s49.249-22.050 49.249-49.249c0-27.2-22.050-49.249-49.249-49.249-27.2 0-49.249 22.050-49.249 49.249z" fill="#1296db" p-id="3369"></path><path d="M269.877 698.718c0 58.922 47.765 106.687 106.687 106.687s106.687-47.765 106.687-106.687c0-58.922-47.765-106.687-106.687-106.687-58.922 0-106.687 47.765-106.687 106.687z" fill="#1296db" p-id="3370"></path><path d="M538.718 698.718c0 0 0 0 0 0 0 58.922 47.765 106.687 106.687 106.687 58.922 0 106.687-47.765 106.687-106.687 0 0 0 0 0 0 0-58.922-47.765-106.687-106.687-106.687-58.922 0-106.687 47.765-106.687 106.687z" fill="#1296db" p-id="3371"></path><path d="M185.782 444.282c0 0 0 0 0 0 0 58.922 47.765 106.687 106.687 106.687 58.922 0 106.687-47.765 106.687-106.687 0 0 0 0 0 0 0-58.922-47.765-106.687-106.687-106.687-58.922 0-106.687 47.765-106.687 106.687z" fill="#1296db" p-id="3372"></path><path d="M624.843 444.282c0 0 0 0 0 0 0 58.922 47.765 106.687 106.687 106.687 58.922 0 106.687-47.765 106.687-106.687 0 0 0 0 0 0 0-58.922-47.765-106.687-106.687-106.687-58.922 0-106.687 47.765-106.687 106.687z" fill="#1296db" p-id="3373"></path><path d="M405.313 284.22c0 58.922 47.765 106.687 106.687 106.687s106.687-47.765 106.687-106.687c0-58.922-47.765-106.687-106.687-106.687-58.922 0-106.687 47.765-106.687 106.687z" fill="#1296db" p-id="3374"></path><path d="M922.434 922.434h-137.469c133.343-88.28 219.53-240.092 219.53-410.434 0-272.905-219.53-492.497-492.497-492.497s-492.497 219.592-492.497 492.497c0 272.967 219.53 492.497 492.497 492.497h410.434c22.532 0 41-18.469 41-41.062 0-22.532-18.469-41-41-41zM512 922.434c-225.749 0-410.434-184.748-410.434-410.434 0-225.749 184.687-410.434 410.434-410.434s410.434 184.687 410.434 410.434c0 225.687-184.687 410.434-410.434 410.434z" fill="#1296db" p-id="3375"></path></svg>